<?xml version="1.0" encoding="UTF-8" standalone="no"?>
<svg
   width="548.87286pt"
   height="439.45142pt"
   version="1.1"
   viewBox="0 0 548.87286 439.45142"
   id="svg664"
   xmlns="http://www.w3.org/2000/svg"
   xmlns:svg="http://www.w3.org/2000/svg">
  <defs
     id="defs584" />
  <g
     id="g662"
     transform="translate(-76.011015,-59.479998)">
    <path
       d="m 387.34,96.363 c 0,-20.367 -16.52,-36.883 -36.871,-36.883 -20.371,0 -36.887,16.516 -36.887,36.883 0,20.363 16.516,36.883 36.887,36.883 20.352,0 36.871,-16.52 36.871,-36.883 z"
       id="path586" />
    <path
       d="m 617.64,292.86 h -24.949 l 0.004,-100.73 h -109.34 v 100.73 l -40.512,0.004 v -104.68 c 0,-25.73 -22.855,-46.328 -48.121,-46.328 H 305.96 c -25.266,0 -47.902,20.598 -47.902,46.328 v 104.68 h -40.512 l 0.004,-100.73 H 108.21 v 100.73 l -24.940996,0.004 c -4.0078,0 -7.2578,3.2539 -7.2578,7.2578 0,4.0078 3.2461,7.2578 7.2578,7.2578 H 108.218 v 100.71 h 109.34 l -0.004,-100.72 h 40.512 v 10.051 c 0,21.293 29.938,21.293 29.938,0 v -10.051 h 13.926 l 0.043,171.55 c 0,11.047 8.9492,20.008 19.992,20.008 11.07,0 20.02,-8.9609 20.02,-20.008 l -0.0664,-151.31 h 16.828 l -0.0664,151.31 c 0,11.047 8.9492,20.008 20.02,20.008 11.043,0 19.992,-8.9609 19.992,-20.008 l 0.043,-171.55 h 14.152 v 10.051 c 0,21.293 29.938,21.293 29.938,0 v -10.051 h 40.512 v 100.71 h 109.34 v -100.71 h 24.949 c 4.0078,0 7.2578,-3.2461 7.2578,-7.2578 0.0156,-4.0039 -3.2344,-7.2539 -7.2422,-7.2539 z m -329.64,0 V 191.09 h 13.895 l 0.0273,101.77 h -13.922 z m 110.75,12.016 h -96.828 v -9.5312 h 96.828 z m 14.152,-12.016 h -14.145 l 0.0273,-101.77 h 14.117 z"
       id="path588" />
  </g>
</svg>
